<mxfile host="app.diagrams.net" modified="2023-12-01T01:44:01.570Z" agent="Mozilla/5.0 (Windows NT 10.0; Win64; x64; rv:120.0) Gecko/20100101 Firefox/120.0" etag="T6JbSiRHxsT2Cv-NoFUZ" version="22.1.5" type="github">
  <diagram name="Page-1" id="nhMCtWs9aOEQ2wft9k-o">
    <mxGraphModel dx="1434" dy="792" grid="1" gridSize="10" guides="1" tooltips="1" connect="1" arrows="1" fold="1" page="1" pageScale="1" pageWidth="850" pageHeight="1100" math="0" shadow="0">
      <root>
        <object label="" id="0">
          <mxCell />
        </object>
        <mxCell id="1" parent="0" />
        <mxCell id="pms9-tswOtVRsHZ1rX3Y-1" value="frame" style="shape=umlFrame;whiteSpace=wrap;html=1;rounded=0;shadow=0;comic=0;labelBackgroundColor=none;strokeWidth=1;fontFamily=Verdana;fontSize=10;align=center;" vertex="1" parent="1">
          <mxGeometry x="40" y="40" width="720" height="540" as="geometry" />
        </mxCell>
        <mxCell id="pms9-tswOtVRsHZ1rX3Y-2" value="Lab5" style="swimlane;fontStyle=0;childLayout=stackLayout;horizontal=1;startSize=30;horizontalStack=0;resizeParent=1;resizeParentMax=0;resizeLast=0;collapsible=1;marginBottom=0;whiteSpace=wrap;html=1;" vertex="1" parent="1">
          <mxGeometry x="80" y="100" width="200" height="60" as="geometry" />
        </mxCell>
        <mxCell id="pms9-tswOtVRsHZ1rX3Y-3" value="&amp;nbsp;+ main(args:String[]):void" style="text;strokeColor=none;fillColor=none;align=left;verticalAlign=middle;spacingLeft=4;spacingRight=4;overflow=hidden;points=[[0,0.5],[1,0.5]];portConstraint=eastwest;rotatable=0;whiteSpace=wrap;html=1;" vertex="1" parent="pms9-tswOtVRsHZ1rX3Y-2">
          <mxGeometry y="30" width="200" height="30" as="geometry" />
        </mxCell>
        <mxCell id="pms9-tswOtVRsHZ1rX3Y-7" value="&lt;div&gt;print oldText&lt;/div&gt;" style="shape=parallelogram;perimeter=parallelogramPerimeter;whiteSpace=wrap;html=1;fixedSize=1;" vertex="1" parent="1">
          <mxGeometry x="360" y="240" width="120" height="60" as="geometry" />
        </mxCell>
        <mxCell id="pms9-tswOtVRsHZ1rX3Y-124" style="edgeStyle=orthogonalEdgeStyle;rounded=0;orthogonalLoop=1;jettySize=auto;html=1;exitX=0.5;exitY=1;exitDx=0;exitDy=0;entryX=0.5;entryY=0;entryDx=0;entryDy=0;" edge="1" parent="1" source="pms9-tswOtVRsHZ1rX3Y-9" target="pms9-tswOtVRsHZ1rX3Y-19">
          <mxGeometry relative="1" as="geometry" />
        </mxCell>
        <mxCell id="pms9-tswOtVRsHZ1rX3Y-9" value="inputFile = new Scanner(exampleFile)" style="rounded=1;whiteSpace=wrap;html=1;" vertex="1" parent="1">
          <mxGeometry x="360" y="80" width="130" height="60" as="geometry" />
        </mxCell>
        <mxCell id="pms9-tswOtVRsHZ1rX3Y-125" style="edgeStyle=orthogonalEdgeStyle;rounded=0;orthogonalLoop=1;jettySize=auto;html=1;exitX=0.5;exitY=1;exitDx=0;exitDy=0;entryX=0.5;entryY=0;entryDx=0;entryDy=0;" edge="1" parent="1" source="pms9-tswOtVRsHZ1rX3Y-19" target="pms9-tswOtVRsHZ1rX3Y-7">
          <mxGeometry relative="1" as="geometry" />
        </mxCell>
        <mxCell id="pms9-tswOtVRsHZ1rX3Y-127" style="edgeStyle=orthogonalEdgeStyle;rounded=0;orthogonalLoop=1;jettySize=auto;html=1;exitX=1;exitY=0.5;exitDx=0;exitDy=0;entryX=0;entryY=0.5;entryDx=0;entryDy=0;" edge="1" parent="1" source="pms9-tswOtVRsHZ1rX3Y-19" target="pms9-tswOtVRsHZ1rX3Y-126">
          <mxGeometry relative="1" as="geometry" />
        </mxCell>
        <mxCell id="pms9-tswOtVRsHZ1rX3Y-19" value="oldText = inputFile.next()" style="rounded=1;whiteSpace=wrap;html=1;" vertex="1" parent="1">
          <mxGeometry x="365" y="160" width="120" height="60" as="geometry" />
        </mxCell>
        <mxCell id="pms9-tswOtVRsHZ1rX3Y-126" value="Cipher desCipher = Cipher.getInstance(DES)" style="rounded=1;whiteSpace=wrap;html=1;" vertex="1" parent="1">
          <mxGeometry x="540" y="160" width="160" height="60" as="geometry" />
        </mxCell>
        <mxCell id="pms9-tswOtVRsHZ1rX3Y-143" value="" style="edgeStyle=orthogonalEdgeStyle;rounded=0;orthogonalLoop=1;jettySize=auto;html=1;" edge="1" parent="1" source="pms9-tswOtVRsHZ1rX3Y-128" target="pms9-tswOtVRsHZ1rX3Y-130">
          <mxGeometry relative="1" as="geometry" />
        </mxCell>
        <mxCell id="pms9-tswOtVRsHZ1rX3Y-147" value="" style="edgeStyle=orthogonalEdgeStyle;rounded=0;orthogonalLoop=1;jettySize=auto;html=1;" edge="1" parent="1" source="pms9-tswOtVRsHZ1rX3Y-128" target="pms9-tswOtVRsHZ1rX3Y-139">
          <mxGeometry relative="1" as="geometry" />
        </mxCell>
        <mxCell id="pms9-tswOtVRsHZ1rX3Y-128" value="newText = desCipher.doFinal(oldText)" style="rounded=1;whiteSpace=wrap;html=1;" vertex="1" parent="1">
          <mxGeometry x="560" y="320" width="160" height="60" as="geometry" />
        </mxCell>
        <mxCell id="pms9-tswOtVRsHZ1rX3Y-130" value="&lt;div&gt;print newText&lt;/div&gt;" style="shape=parallelogram;perimeter=parallelogramPerimeter;whiteSpace=wrap;html=1;fixedSize=1;" vertex="1" parent="1">
          <mxGeometry x="350" y="320" width="120" height="60" as="geometry" />
        </mxCell>
        <mxCell id="pms9-tswOtVRsHZ1rX3Y-150" value="" style="edgeStyle=orthogonalEdgeStyle;rounded=0;orthogonalLoop=1;jettySize=auto;html=1;" edge="1" parent="1" source="pms9-tswOtVRsHZ1rX3Y-132" target="pms9-tswOtVRsHZ1rX3Y-149">
          <mxGeometry relative="1" as="geometry" />
        </mxCell>
        <mxCell id="pms9-tswOtVRsHZ1rX3Y-132" value="newText = desCipher.doFinal(newText)" style="rounded=1;whiteSpace=wrap;html=1;" vertex="1" parent="1">
          <mxGeometry x="560" y="480" width="160" height="60" as="geometry" />
        </mxCell>
        <mxCell id="pms9-tswOtVRsHZ1rX3Y-146" value="" style="edgeStyle=orthogonalEdgeStyle;rounded=0;orthogonalLoop=1;jettySize=auto;html=1;" edge="1" parent="1" source="pms9-tswOtVRsHZ1rX3Y-138" target="pms9-tswOtVRsHZ1rX3Y-128">
          <mxGeometry relative="1" as="geometry" />
        </mxCell>
        <mxCell id="pms9-tswOtVRsHZ1rX3Y-138" value="&lt;div&gt;desCipher.init(ENCRYPT_MODE)&lt;/div&gt;" style="rounded=1;whiteSpace=wrap;html=1;" vertex="1" parent="1">
          <mxGeometry x="540" y="240" width="200" height="60" as="geometry" />
        </mxCell>
        <mxCell id="pms9-tswOtVRsHZ1rX3Y-148" value="" style="edgeStyle=orthogonalEdgeStyle;rounded=0;orthogonalLoop=1;jettySize=auto;html=1;" edge="1" parent="1" source="pms9-tswOtVRsHZ1rX3Y-139" target="pms9-tswOtVRsHZ1rX3Y-132">
          <mxGeometry relative="1" as="geometry" />
        </mxCell>
        <mxCell id="pms9-tswOtVRsHZ1rX3Y-139" value="&lt;div&gt;desCipher.init(DECRYPT_MODE)&lt;/div&gt;" style="rounded=1;whiteSpace=wrap;html=1;" vertex="1" parent="1">
          <mxGeometry x="540" y="400" width="200" height="60" as="geometry" />
        </mxCell>
        <mxCell id="pms9-tswOtVRsHZ1rX3Y-140" style="edgeStyle=orthogonalEdgeStyle;rounded=0;orthogonalLoop=1;jettySize=auto;html=1;exitX=0.5;exitY=1;exitDx=0;exitDy=0;entryX=0.39;entryY=0;entryDx=0;entryDy=0;entryPerimeter=0;" edge="1" parent="1" source="pms9-tswOtVRsHZ1rX3Y-126" target="pms9-tswOtVRsHZ1rX3Y-138">
          <mxGeometry relative="1" as="geometry" />
        </mxCell>
        <mxCell id="pms9-tswOtVRsHZ1rX3Y-149" value="&lt;div&gt;print newText&lt;/div&gt;" style="shape=parallelogram;perimeter=parallelogramPerimeter;whiteSpace=wrap;html=1;fixedSize=1;" vertex="1" parent="1">
          <mxGeometry x="340" y="480" width="120" height="60" as="geometry" />
        </mxCell>
      </root>
    </mxGraphModel>
  </diagram>
</mxfile>
